<!DOCTYPE svg PUBLIC "-//W3C//DTD SVG 1.1//EN" "http://www.w3.org/Graphics/SVG/1.1/DTD/svg11.dtd">
<!-- Uploaded to: SVG Repo, www.svgrepo.com, Transformed by: SVG Repo Mixer Tools -->
<svg fill="#f50000" width="256px" height="256px" viewBox="0 0 32.00 32.00" version="1.1" xmlns="http://www.w3.org/2000/svg" stroke="#f50000" stroke-width="0.00032">
<g id="SVGRepo_bgCarrier" stroke-width="0"/>
<g id="SVGRepo_tracerCarrier" stroke-linecap="round" stroke-linejoin="round" stroke="#CCCCCC" stroke-width="2.88"/>
<g id="SVGRepo_iconCarrier"> <title>battery-0</title> <path d="M12.563 1c-0.937 0-1.25 0.211-1.25 1.25v0.937h-2.813c-1.847 0-2.187 0.341-2.187 2.187v23.438c0 1.847 0.341 2.187 2.187 2.187h15c1.847 0 2.187-0.341 2.187-2.187v-23.438c0-1.847-0.341-2.187-2.187-2.187h-2.813v-0.937c0-1.038-0.312-1.25-1.25-1.25h-6.875zM8.5 7.563c0-2.5-0.312-2.187 2.187-2.187 1.25 0 9.688 0 10.625 0 2.5 0 2.187-0.312 2.187 2.187 0 1.25 0 17.813 0 19.063 0 2.5 0.312 2.187-2.187 2.187-1.25 0-9.375 0-10.625 0-2.5 0-2.187 0.312-2.187-2.187 0-1.251 0-17.813 0-19.063z"/> </g>
</svg>